<svg xmlns="http://www.w3.org/2000/svg" fill-rule="evenodd" stroke-linejoin="round" stroke-miterlimit="2" clip-rule="evenodd" viewBox="0 0 512 512" id="expand"><path d="M363.87 33c25.04.12 49.96 8.56 69.83 23.8 27.79 21.32 45.02 55.62 45.3 90.96.35 72.03.1 144.07 0 216.11-.12 25.04-8.56 49.96-23.8 69.83-21.32 27.79-55.62 45.02-90.96 45.3-72.03.35-144.07.1-216.11 0-25.49-.13-50.83-8.86-70.93-24.65-27.29-21.45-44.04-55.84-44.2-90.48-.13-71.91-.13-143.83 0-215.74.22-47.18 31.75-92.75 77.47-108.71 11.95-4.17 24.6-6.32 37.29-6.42 72.03-.35 144.07-.1 216.11 0ZM148.51 49c-30.89.04-61.46 15.41-79.91 40.23-12.54 16.86-19.5 37.59-19.6 58.95-.13 71.99-.33 143.98 0 215.96.26 32.16 17.06 63.62 43.64 81.69 16.17 10.99 35.5 17.02 55.22 17.17 72.09.35 144.19.35 216.28 0 31.82-.25 62.89-16.68 81.01-42.66 11.41-16.35 17.69-36.19 17.85-56.2.35-72.09.35-144.19 0-216.28-.24-30.33-15.09-59.99-39.04-78.36-17.01-13.05-38.31-20.33-59.82-20.5-71.87-.35-143.75 0-215.63 0Zm-.88 326.68 87.3-1.41.26 15.99-115.32 1.87 1.87-115.32c5.33.08 10.66.17 15.99.26l-1.41 87.3 69.02-69.03 11.32 11.32-69.03 69.02Zm216.74-239.36-87.3 1.41-.26-15.99 115.32-1.87c-.62 38.44-1.24 76.88-1.87 115.32l-15.99-.26 1.41-87.3-69.02 69.03-11.32-11.32 69.03-69.02Z"></path></svg>